<svg id="Layer_1" data-name="Layer 1" xmlns="http://www.w3.org/2000/svg" viewBox="0 0 150 60"><defs><style>.cls-1{fill:#fdfdfd;}.cls-2{fill:#04145e;}.cls-3{fill:#04145d;}.cls-4{fill:#05155e;}.cls-5{fill:#05155f;}.cls-6{fill:#fefefe;}.cls-7{fill:#081860;}.cls-8{fill:#142368;}</style></defs><path class="cls-1" d="M133.64,8.89q0,23,0,45.91c0,.21-.05.26-.27.26q-56.8,0-113.62,0c-.22,0-.27-.05-.27-.26q0-26.71,0-53.42c0-.21.05-.26.27-.26H133.38c.22,0,.27,0,.27.26q0,3.42,0,6.82c-.16,0-.12-.15-.14-.23a2.55,2.55,0,0,0-1.76-1.9,2.5,2.5,0,0,0-2.63.64A2.61,2.61,0,0,0,128.8,10a2.58,2.58,0,0,0,3.24.92,2.53,2.53,0,0,0,1.46-1.79C133.52,9,133.48,8.9,133.64,8.89Z"/><path class="cls-2" d="M133.64,8.89a4.41,4.41,0,0,1-.35,1,2.68,2.68,0,1,1,.3-1.8.5.5,0,0,0,0,.13Z"/><path class="cls-3" d="M59.54,28.63l.47.18a5.79,5.79,0,0,1,3.41,3.78A11.39,11.39,0,0,1,64,36.21a14.49,14.49,0,0,1-.6,4.81,6.81,6.81,0,0,1-3.12,4,11.4,11.4,0,0,1-4.07,1.37,38.11,38.11,0,0,1-5.34.34H20.63c-.27,0-.34-.06-.34-.34q0-17.19,0-34.37c0-.27.05-.34.33-.34H50.77a23.28,23.28,0,0,1,5.88.62,7.63,7.63,0,0,1,5.09,3.76,8.81,8.81,0,0,1,1,3.48,14.16,14.16,0,0,1-.28,4.68,8,8,0,0,1-2.67,4.21Z"/><path class="cls-3" d="M96.22,20.59H82.9a6.46,6.46,0,0,0-1.75.22A1.53,1.53,0,0,0,80,22.07a3.18,3.18,0,0,0,0,1,1.78,1.78,0,0,0,1,1.43,4.85,4.85,0,0,0,2.14.51h18.8a9.81,9.81,0,0,1,4.63,1.07,6.93,6.93,0,0,1,3.65,4.34,19.78,19.78,0,0,1,.7,6.76,14.94,14.94,0,0,1-.67,3.81,7.49,7.49,0,0,1-5.47,5.14,15.71,15.71,0,0,1-4.14.56H75.41a8.72,8.72,0,0,1-2.09-.25,5.83,5.83,0,0,1-4.47-5.71c0-.87,0-1.73,0-2.6,0-.24.07-.29.3-.29H95.81a5.64,5.64,0,0,0,2.17-.5A1.86,1.86,0,0,0,99,35a1.63,1.63,0,0,0-.89-1A5.39,5.39,0,0,0,96,33.6H77A10.56,10.56,0,0,1,73.22,33,7.09,7.09,0,0,1,69,28.37a14.49,14.49,0,0,1-.77-4.22,19.33,19.33,0,0,1,.65-6.6,8.5,8.5,0,0,1,1.85-3.4,7.67,7.67,0,0,1,4.59-2.24,15.66,15.66,0,0,1,2.56-.17c8.41,0,16.83,0,25.24,0a7.89,7.89,0,0,1,5.56,2.13,4.85,4.85,0,0,1,1.38,2.69,4.8,4.8,0,0,1,.07.85c0,.95,0,1.9,0,2.85,0,.24,0,.31-.3.31-4.54,0-9.09,0-13.63,0Z"/><path class="cls-2" d="M127.24,29.22q0,8.58,0,17.17c0,.28-.07.34-.34.34H115.45c-.24,0-.3-.06-.3-.29q0-17.23,0-34.47c0-.24.06-.29.3-.29h11.49c.24,0,.31.05.31.3Q127.23,20.61,127.24,29.22Z"/><path class="cls-2" d="M23.45,51.75A1.14,1.14,0,0,1,23.19,54a5.46,5.46,0,0,1-1.14.07H20.51c-.16,0-.21,0-.21-.21,0-1.31,0-2.62,0-3.93,0-.09,0-.21.12-.2a19.9,19.9,0,0,1,2.56.06,1.06,1.06,0,0,1,1,1.3A1.13,1.13,0,0,1,23.45,51.75Z"/><path class="cls-2" d="M120.7,52.62V50.11c0-.42,0-.42.41-.42s.4,0,.4.4c0,1.23,0,2.45,0,3.68,0,.22-.06.26-.27.27a.75.75,0,0,1-.67-.31c-.64-.81-1.3-1.59-2-2.38a.31.31,0,0,0-.19-.16v.88c0,.58,0,1.16,0,1.74,0,.18,0,.22-.23.22-.59,0-.59,0-.59-.59,0-1.16,0-2.33,0-3.5,0-.2,0-.25.24-.26a.76.76,0,0,1,.72.33c.62.81,1.28,1.58,1.92,2.37Z"/><path class="cls-2" d="M99.33,52.57a.43.43,0,0,0,0-.29c0-.79,0-1.57,0-2.36,0-.16,0-.24.21-.24.61,0,.61,0,.61.61,0,1.17,0,2.33,0,3.5,0,.18,0,.23-.23.25a.77.77,0,0,1-.72-.33c-.61-.78-1.26-1.54-1.9-2.31l-.23-.26v.61c0,.69,0,1.37,0,2.06,0,.16,0,.22-.21.22-.6,0-.6,0-.6-.58,0-1.16,0-2.32,0-3.48,0-.21,0-.28.27-.29a.76.76,0,0,1,.69.33c.63.8,1.28,1.58,1.92,2.37Z"/><path class="cls-2" d="M81.17,52.63c0-1,0-1.82,0-2.68,0-.22,0-.27.26-.27.55,0,.55,0,.55.55,0,1.17,0,2.35,0,3.53,0,.2,0,.27-.26.28a.77.77,0,0,1-.69-.33c-.68-.85-1.39-1.68-2.08-2.53-.1.09-.06.18-.06.26,0,.77,0,1.55,0,2.33,0,.19,0,.27-.25.26-.57,0-.57,0-.57-.58,0-1.17,0-2.34,0-3.5,0-.22.06-.26.26-.27A.73.73,0,0,1,79,50C79.72,50.87,80.42,51.71,81.17,52.63Z"/><path class="cls-2" d="M30.06,51.86v-2c0-.1,0-.21.15-.2a20.14,20.14,0,0,1,2.33.05,2.14,2.14,0,0,1,0,4.23,18.29,18.29,0,0,1-2.34.06c-.16,0-.15-.09-.15-.2Z"/><path class="cls-2" d="M95.3,54h-.79c-.12,0-.15-.09-.2-.17-.23-.31-.45-.63-.67-1a.3.3,0,0,0-.3-.15h-.77c-.15,0-.2,0-.2.19,0,.3,0,.61,0,.91,0,.14,0,.17-.18.18-.65,0-.65,0-.65-.62,0-1.16,0-2.32,0-3.47,0-.2,0-.27.25-.26a15.6,15.6,0,0,1,2.16.07,1.49,1.49,0,0,1,1.1,2.17,1.21,1.21,0,0,1-.57.57c-.18.08-.17.15-.07.29C94.71,53.18,95,53.58,95.3,54Z"/><path class="cls-2" d="M48.43,54a1,1,0,0,1-1.28-.58,1,1,0,0,0-1.24-.66c-.36.06-.36,0-.36.4v.42c0,.47,0,.45-.46.47-.29,0-.38-.05-.38-.36,0-1.24,0-2.49,0-3.73,0-.19,0-.27.24-.26a15.54,15.54,0,0,1,2.16.07,1.49,1.49,0,0,1,1.14,2.12,1.27,1.27,0,0,1-.63.64c-.15.06-.15.12-.06.24C47.87,53.16,48.15,53.57,48.43,54Z"/><path class="cls-2" d="M116.6,51.85a2.35,2.35,0,1,1-2.34-2.22A2.21,2.21,0,0,1,116.6,51.85Z"/><path class="cls-2" d="M40.39,51.86c0-.65,0-1.29,0-1.94,0-.19,0-.24.24-.24h2.73c.2,0,.24.06.23.24,0,.44,0,.44-.43.44s-1.12,0-1.68,0c-.23,0-.28.07-.26.27a3.25,3.25,0,0,1,0,.54c0,.24,0,.33.3.32.52,0,1,0,1.57,0,.2,0,.25.07.25.26,0,.41,0,.41-.43.41H41.42c-.16,0-.22,0-.21.2s0,.54,0,.8,0,.22.22.22c.66,0,1.31,0,2,0,.21,0,.3,0,.28.28,0,.4,0,.4-.41.4H40.62c-.18,0-.24,0-.24-.23C40.39,53.15,40.39,52.5,40.39,51.86Z"/><path class="cls-2" d="M87.22,51.85c0-.64,0-1.27,0-1.91,0-.19,0-.26.25-.26.91,0,1.82,0,2.73,0,.17,0,.26,0,.22.22v0c0,.43,0,.43-.41.43H88.26c-.17,0-.23,0-.22.22s0,.48,0,.72,0,.19.19.19h1.66c.21,0,.28.05.27.27,0,.4,0,.4-.41.4H88.27c-.19,0-.25.06-.23.24s-.13.74.06.92.6.05.91.06.86,0,1.28,0c.18,0,.24.06.22.23a.89.89,0,0,0,0,.23c0,.18,0,.22-.22.22H87.44c-.19,0-.23-.06-.23-.24C87.22,53.14,87.22,52.5,87.22,51.85Z"/><path class="cls-2" d="M59.36,54a1.2,1.2,0,0,1-1.46-.59c-.25-.37-.58-.68-.86-1-.1-.13-.18-.17-.28,0l0,0a1.29,1.29,0,0,0-.53,1.36c0,.21,0,.3-.26.29-.56,0-.56,0-.56-.56,0-1.17,0-2.34,0-3.51,0-.2,0-.28.26-.28.57,0,.57,0,.57.58v1.57c.11,0,.14-.06.19-.1.57-.59,1.14-1.17,1.7-1.77a.71.71,0,0,1,.66-.28,2.85,2.85,0,0,0,.52,0L59,50c-.46.5-.93,1-1.4,1.5-.13.13-.15.21,0,.36C58.19,52.54,58.77,53.27,59.36,54Z"/><path class="cls-2" d="M39.13,52.7a3.25,3.25,0,0,0,0,.54.44.44,0,0,1-.3.51,3,3,0,0,1-2.24.21,2.21,2.21,0,0,1,.23-4.26,2.55,2.55,0,0,1,2.21.46c.13.1.17.19,0,.3l-.06.06c-.18.27-.35.27-.62.07a1.65,1.65,0,0,0-2,.11A1.59,1.59,0,0,0,36,52.56a1.67,1.67,0,0,0,2.2.67c.12,0,.12-.14.12-.25V52c0-.13,0-.17.17-.18.6,0,.6,0,.6.56Z"/><path class="cls-2" d="M24.61,54,26,50.88c.16-.34.32-.67.46-1a.27.27,0,0,1,.27-.19c.61,0,.61,0,.86.55.54,1.17,1.07,2.34,1.6,3.51l.11.26-.07,0c-.74,0-.76,0-1-.64a.48.48,0,0,0-.55-.35c-.53,0-1.06,0-1.59,0-.16,0-.25,0-.3.2a1.12,1.12,0,0,1-.05.13C25.42,54.07,25.42,54.07,24.61,54Z"/><path class="cls-2" d="M100.92,54c.22-.48.41-.92.61-1.36.41-.9.83-1.8,1.23-2.71a.4.4,0,0,1,.41-.28c.41,0,.59.11.75.48.52,1.22,1.09,2.42,1.64,3.62.08.18.1.23-.15.26-.45.05-.74-.07-.83-.54s-.33-.5-.72-.47a14.61,14.61,0,0,1-1.48,0,.25.25,0,0,0-.27.19c0,.14-.13.27-.18.41-.08.31-.25.47-.58.4A3.05,3.05,0,0,0,100.92,54Z"/><path class="cls-2" d="M122.21,54c.57-1.27,1.13-2.52,1.7-3.76a1,1,0,0,0,.07-.15c.08-.34.28-.44.63-.43a.51.51,0,0,1,.52.35c.55,1.25,1.12,2.49,1.68,3.73a.43.43,0,0,1,.09.28h-.68a.17.17,0,0,1-.19-.13c0-.06-.06-.1-.07-.16-.12-.62-.5-.79-1.09-.71a6.87,6.87,0,0,1-1.2,0c-.16,0-.25,0-.29.2a.76.76,0,0,1-.06.16C123,54.08,123,54.08,122.21,54Z"/><path class="cls-2" d="M52.79,49.63a3.2,3.2,0,0,1,1.19.24c.19.08.27.16.16.38-.17.38-.16.39-.53.23a2.09,2.09,0,0,0-1.28-.14c-.26.06-.48.19-.5.5s.2.43.44.52c.48.17,1,.22,1.47.44a1.1,1.1,0,0,1,.18,1.94,1.75,1.75,0,0,1-.43.22,3.2,3.2,0,0,1-2.37-.24c-.17-.09-.2-.17-.12-.35.19-.39.18-.39.55-.21a2.53,2.53,0,0,0,1.44.23.8.8,0,0,0,.39-.14.43.43,0,0,0,0-.77,3,3,0,0,0-.83-.28c-.26-.08-.53-.14-.79-.24A1,1,0,0,1,51,51a1.12,1.12,0,0,1,.55-1.11A2.09,2.09,0,0,1,52.79,49.63Z"/><path class="cls-2" d="M71.34,54.08a3.28,3.28,0,0,1-1.48-.34c-.19-.1-.27-.2-.13-.4a.72.72,0,0,0,.09-.2c.05-.16.12-.17.26-.08a2.41,2.41,0,0,0,1.53.34,1,1,0,0,0,.41-.11.47.47,0,0,0,.3-.41.45.45,0,0,0-.28-.43,4.82,4.82,0,0,0-1-.3,3.38,3.38,0,0,1-.7-.23,1.12,1.12,0,0,1-.24-1.87,2.66,2.66,0,0,1,2.72-.1c.09.06.08.11,0,.19-.14.5-.15.5-.62.32A2,2,0,0,0,71,50.37a.5.5,0,0,0-.42.47c0,.29.16.42.39.49.43.14.88.24,1.31.38a1.08,1.08,0,0,1,.88,1.17,1.13,1.13,0,0,1-.66,1A2.18,2.18,0,0,1,71.34,54.08Z"/><path class="cls-2" d="M84.64,49.69c.54,0,1.08,0,1.63,0,.19,0,.25.06.23.24a1.13,1.13,0,0,0,0,.26c0,.14,0,.18-.19.18-.35,0-.7,0-1,0-.18,0-.22.06-.22.23,0,1.05,0,2.11,0,3.17,0,.2,0,.29-.27.28-.54,0-.54,0-.54-.55,0-1,0-1.92,0-2.88,0-.2-.06-.26-.25-.25s-.65,0-1,0-.27-.06-.24-.24a.89.89,0,0,0,0-.23c0-.17,0-.21.21-.21Z"/><path class="cls-2" d="M107.4,49.69c.53,0,1.07,0,1.6,0,.22,0,.29.07.26.27a.88.88,0,0,0,0,.23c0,.14-.06.18-.19.18-.34,0-.68,0-1,0s-.25.07-.25.26c0,1,0,2.09,0,3.14,0,.21,0,.29-.27.28-.54,0-.55,0-.55-.55,0-1,0-1.92,0-2.88,0-.2-.06-.26-.26-.25s-.64,0-1,0-.26-.06-.23-.24a.88.88,0,0,0,0-.23c0-.17,0-.21.21-.2Z"/><path class="cls-4" d="M66.11,51.85c0-.65,0-1.3,0-1.94,0-.17,0-.23.22-.23.61,0,.61,0,.61.6,0,.91,0,1.83,0,2.74,0,.3.09.35.36.34.56,0,1.12,0,1.68,0,.2,0,.28,0,.25.26a2.09,2.09,0,0,0,0,.25c0,.12,0,.17-.15.17h-2.8c-.18,0-.16-.1-.16-.22Z"/><path class="cls-4" d="M62.23,51.84c0-.63,0-1.26,0-1.88,0-.2,0-.28.25-.28.58,0,.58,0,.58.58,0,1,0,1.9,0,2.85,0,.2.06.26.26.25.57,0,1.15,0,1.73,0,.27,0,.34.08.31.32a.67.67,0,0,0,0,.2c0,.13-.06.16-.17.16H62.39c-.16,0-.16-.09-.16-.2Z"/><path class="cls-4" d="M127.66,51.86v-2c0-.16,0-.21.2-.22.62,0,.62,0,.62.61,0,.94,0,1.87,0,2.8,0,.23.07.28.28.27.58,0,1.16,0,1.74,0,.21,0,.28,0,.28.27,0,.41,0,.41-.41.41h-2.44c-.21,0-.28,0-.28-.26C127.67,53.14,127.66,52.5,127.66,51.86Z"/><path class="cls-5" d="M76,51.84c0-.64,0-1.29,0-1.94,0-.18,0-.22.22-.22.6,0,.6,0,.6.61,0,1.16,0,2.32,0,3.48,0,.21-.06.27-.27.26C76,54,76,54,76,53.47Z"/><path class="cls-5" d="M110,51.84c0-.64,0-1.29,0-1.94,0-.17,0-.22.22-.22.61,0,.61,0,.61.61,0,1.16,0,2.32,0,3.48,0,.21,0,.27-.26.26-.57,0-.57,0-.57-.56Z"/><path class="cls-5" d="M60.07,51.84c0-.64,0-1.29,0-1.94,0-.18,0-.22.22-.22.61,0,.61,0,.61.61,0,1.16,0,2.32,0,3.48,0,.22-.06.27-.27.26-.56,0-.56,0-.56-.56Z"/><path class="cls-6" d="M133.13,8.55A2.17,2.17,0,1,1,131,6.38,2.16,2.16,0,0,1,133.13,8.55Z"/><path class="cls-6" d="M41.28,37.25h-8.9c-.22,0-.3,0-.3-.28,0-1.16,0-2.32,0-3.48,0-.19.05-.24.24-.24H50.17A1.78,1.78,0,0,1,52,35.08a2.92,2.92,0,0,1,0,.66,1.62,1.62,0,0,1-1.76,1.5c-1.08,0-2.16,0-3.25,0Z"/><path class="cls-6" d="M40.78,20.87h8.35A1.78,1.78,0,0,1,51,22.71a1.89,1.89,0,0,1-1.91,2.09c-1.69,0-3.39,0-5.08,0H32.22c-.23,0-.29,0-.29-.29q0-1.69,0-3.39c0-.22.06-.26.27-.26Z"/><path class="cls-6" d="M22,53.36h-.74c-.12,0-.17,0-.16-.16v0c0-.33-.11-.76.05-1s.61,0,.93-.05a2.44,2.44,0,0,1,.81.05.56.56,0,0,1,.46.55.55.55,0,0,1-.44.55A4.17,4.17,0,0,1,22,53.36Z"/><path class="cls-6" d="M21.89,50.38c.23,0,.46,0,.69,0s.58.25.57.55a.54.54,0,0,1-.57.52c-.44,0-.88,0-1.31,0-.13,0-.14-.07-.14-.16,0-.27,0-.54,0-.8s0-.17.16-.17h.6Z"/><path class="cls-6" d="M30.89,51.86V50.55c0-.1,0-.2.13-.19a6.92,6.92,0,0,1,1.44.06A1.41,1.41,0,0,1,33.53,52a1.4,1.4,0,0,1-1.29,1.3c-.39,0-.79,0-1.19,0-.16,0-.17-.07-.17-.19C30.89,52.73,30.89,52.29,30.89,51.86Z"/><path class="cls-6" d="M92.38,51.22v0c0-.27-.12-.64.05-.78s.53,0,.8,0a2.19,2.19,0,0,1,.51,0,.83.83,0,0,1,0,1.63,5.79,5.79,0,0,1-1.25,0c-.11,0-.1-.07-.1-.15Z"/><path class="cls-6" d="M45.57,51.21c0-.27-.11-.64,0-.8s.53,0,.81,0a1.65,1.65,0,0,1,.54,0,.84.84,0,0,1,0,1.62,7.43,7.43,0,0,1-1.25.06c-.13,0-.12-.08-.12-.17v-.71Z"/><path class="cls-6" d="M115.78,51.85a1.49,1.49,0,0,1-1.53,1.55,1.54,1.54,0,1,1,0-3.08A1.49,1.49,0,0,1,115.78,51.85Z"/><path class="cls-6" d="M27.78,52.37H26.16c.13-.32.26-.62.39-.92l.41-1Z"/><path class="cls-6" d="M104.1,52.36h-1.63l.81-1.86Z"/><path class="cls-6" d="M125.38,52.36h-1.63l.81-1.86Z"/><path class="cls-7" d="M131.7,8.88c.13-.37.25-.66.33-1s.26-.16.41-.17.14.14.14.24c0,.38,0,.76,0,1.14,0,.11,0,.2-.16.2s-.19-.06-.18-.2a4.85,4.85,0,0,0-.05-.84c-.11.29-.21.57-.31.86,0,.1-.06.18-.21.18s-.16-.09-.2-.19a5.06,5.06,0,0,0-.36-.84v.85c0,.1,0,.18-.14.18s-.18-.06-.18-.19c0-.39,0-.78,0-1.17,0-.09-.05-.24.12-.22s.36-.11.44.13S131.57,8.5,131.7,8.88Z"/><path class="cls-8" d="M129.78,8.68c0-.12,0-.23,0-.34s0-.34-.27-.29-.18,0-.17-.15,0-.15.16-.15h.91c.12,0,.17,0,.17.16s-.07.15-.17.14c-.25,0-.3.09-.28.31s0,.53,0,.8,0,.19-.18.18-.19,0-.18-.18Z"/></svg>